<svg width="120" height="56" viewBox="0 0 120 56" fill="none" xmlns="http://www.w3.org/2000/svg">
<g clip-path="url(#clip0_487_33049)">
<path fill-rule="evenodd" clip-rule="evenodd" d="M35.9511 56H10.4942L0.217529 0H25.6744L35.9511 56ZM41.0895 27.987L35.9512 56H61.4081L66.5464 27.987H41.0895ZM74.8146 40.7155V30.8822H74.8668L78.1793 40.7155H81.9092L85.2217 30.8562V40.7155H88.6386V28.0131H83.422L80.2399 37.5073L77.0838 28.0131H71.6847V40.7155H74.8146ZM89.4993 30.7779V27.987H103.219V30.7779H98.0545V40.7155H94.6376V30.7779H89.4993ZM117.669 32.395C117.304 28.9521 114.774 27.7262 110.548 27.7262L110.574 27.7523C105.958 27.7523 103.245 29.3694 103.245 34.3773C103.245 39.3852 106.375 40.9763 110.574 40.9763C114.774 40.9763 117.304 39.7243 117.695 36.4379H114.252C113.887 37.9507 112.922 38.3158 110.574 38.3158C108.227 38.3158 106.662 37.6638 106.662 35.0816V33.6209C106.662 30.9865 108.409 30.3866 110.548 30.3866C112.687 30.3866 113.939 30.7779 114.226 32.395H117.669ZM75.1276 43.2455V53.1831H82.5091V55.9739H71.6847V43.2716H75.1015L75.1276 43.2455ZM87.3866 55.9479V43.2456H83.9697V55.9479H87.3866ZM104.132 43.2456L98.7065 55.9479H94.0638L88.6646 43.2456H92.3423L96.6199 53.444L100.95 43.2456H104.132ZM116.991 45.8799V43.2456L116.965 43.2716H105.384V55.974H117.043V53.3396H108.827V50.7313H115.035V48.2013H108.827V45.8799H116.991Z" fill="#FF0032"/>
</g>
<defs>
<clipPath id="clip0_487_33049">
<rect width="120" height="56" fill="white"/>
</clipPath>
</defs>
</svg>
